<svg width="35" height="36" viewBox="0 0 35 36" fill="none" xmlns="http://www.w3.org/2000/svg">
<path d="M29.1813 23.3982C27.3875 23.3982 25.6521 23.1066 24.0333 22.5816C23.7797 22.4956 23.5071 22.4828 23.2465 22.5448C22.986 22.6067 22.7482 22.7407 22.5604 22.9316L20.2708 25.8045C16.1438 23.8357 12.2792 20.117 10.2229 15.8441L13.0667 13.4232C13.4604 13.0149 13.5771 12.4462 13.4167 11.9357C12.8771 10.317 12.6 8.58157 12.6 6.78782C12.6 6.00032 11.9438 5.34407 11.1563 5.34407H6.11042C5.32292 5.34407 4.375 5.69407 4.375 6.78782C4.375 20.3357 15.6479 31.5941 29.1813 31.5941C30.2167 31.5941 30.625 30.6753 30.625 29.8732V24.842C30.625 24.0545 29.9688 23.3982 29.1813 23.3982Z" fill="#337AFF"/>
</svg>
